<mxfile host="app.diagrams.net" modified="2021-06-23T10:34:53.050Z" agent="5.0 (Windows NT 10.0; Win64; x64) AppleWebKit/537.36 (KHTML, like Gecko) Chrome/91.0.4472.114 Safari/537.36 Edg/91.0.864.54" etag="gSfeGXiL1ED5CKgA4Sp3" version="14.8.0" type="github">
  <diagram id="_J7zR7n5TPQFFmOhfue2" name="Page-1">
    <mxGraphModel dx="2012" dy="1831" grid="1" gridSize="10" guides="1" tooltips="1" connect="1" arrows="1" fold="1" page="1" pageScale="1" pageWidth="827" pageHeight="1169" math="0" shadow="0">
      <root>
        <mxCell id="0" />
        <mxCell id="1" parent="0" />
        <mxCell id="LibIu4Z24v2-g8bAybLF-3" style="edgeStyle=orthogonalEdgeStyle;rounded=0;orthogonalLoop=1;jettySize=auto;html=1;entryX=0.5;entryY=0;entryDx=0;entryDy=0;" parent="1" source="LibIu4Z24v2-g8bAybLF-1" target="LibIu4Z24v2-g8bAybLF-2" edge="1">
          <mxGeometry relative="1" as="geometry">
            <Array as="points">
              <mxPoint x="-230" y="-760" />
              <mxPoint x="-470" y="-760" />
            </Array>
          </mxGeometry>
        </mxCell>
        <mxCell id="LibIu4Z24v2-g8bAybLF-1" value="검색" style="whiteSpace=wrap;html=1;aspect=fixed;" parent="1" vertex="1">
          <mxGeometry x="-270" y="-880" width="80" height="80" as="geometry" />
        </mxCell>
        <mxCell id="LibIu4Z24v2-g8bAybLF-10" style="edgeStyle=orthogonalEdgeStyle;rounded=0;orthogonalLoop=1;jettySize=auto;html=1;entryX=0.5;entryY=0;entryDx=0;entryDy=0;" parent="1" source="LibIu4Z24v2-g8bAybLF-2" target="LibIu4Z24v2-g8bAybLF-6" edge="1">
          <mxGeometry relative="1" as="geometry">
            <Array as="points">
              <mxPoint x="-470" y="-560" />
              <mxPoint x="-732" y="-560" />
            </Array>
          </mxGeometry>
        </mxCell>
        <mxCell id="LibIu4Z24v2-g8bAybLF-11" style="edgeStyle=orthogonalEdgeStyle;rounded=0;orthogonalLoop=1;jettySize=auto;html=1;entryX=0.5;entryY=0;entryDx=0;entryDy=0;" parent="1" source="LibIu4Z24v2-g8bAybLF-2" target="LibIu4Z24v2-g8bAybLF-7" edge="1">
          <mxGeometry relative="1" as="geometry">
            <Array as="points">
              <mxPoint x="-470" y="-560" />
              <mxPoint x="-570" y="-560" />
            </Array>
          </mxGeometry>
        </mxCell>
        <mxCell id="LibIu4Z24v2-g8bAybLF-12" style="edgeStyle=orthogonalEdgeStyle;rounded=0;orthogonalLoop=1;jettySize=auto;html=1;" parent="1" source="LibIu4Z24v2-g8bAybLF-2" target="LibIu4Z24v2-g8bAybLF-8" edge="1">
          <mxGeometry relative="1" as="geometry">
            <Array as="points">
              <mxPoint x="-470" y="-560" />
              <mxPoint x="-385" y="-560" />
            </Array>
          </mxGeometry>
        </mxCell>
        <mxCell id="LibIu4Z24v2-g8bAybLF-13" style="edgeStyle=orthogonalEdgeStyle;rounded=0;orthogonalLoop=1;jettySize=auto;html=1;entryX=0.5;entryY=0;entryDx=0;entryDy=0;" parent="1" source="LibIu4Z24v2-g8bAybLF-2" target="LibIu4Z24v2-g8bAybLF-9" edge="1">
          <mxGeometry relative="1" as="geometry">
            <Array as="points">
              <mxPoint x="-470" y="-560" />
              <mxPoint x="-205" y="-560" />
            </Array>
          </mxGeometry>
        </mxCell>
        <mxCell id="LibIu4Z24v2-g8bAybLF-2" value="검색필터" style="rounded=0;whiteSpace=wrap;html=1;" parent="1" vertex="1">
          <mxGeometry x="-530" y="-650" width="120" height="60" as="geometry" />
        </mxCell>
        <mxCell id="LibIu4Z24v2-g8bAybLF-19" style="edgeStyle=orthogonalEdgeStyle;rounded=0;orthogonalLoop=1;jettySize=auto;html=1;" parent="1" source="LibIu4Z24v2-g8bAybLF-6" target="LibIu4Z24v2-g8bAybLF-14" edge="1">
          <mxGeometry relative="1" as="geometry">
            <Array as="points">
              <mxPoint x="-732" y="-440" />
              <mxPoint x="-790" y="-440" />
            </Array>
          </mxGeometry>
        </mxCell>
        <mxCell id="LibIu4Z24v2-g8bAybLF-20" style="edgeStyle=orthogonalEdgeStyle;rounded=0;orthogonalLoop=1;jettySize=auto;html=1;" parent="1" source="LibIu4Z24v2-g8bAybLF-6" target="LibIu4Z24v2-g8bAybLF-15" edge="1">
          <mxGeometry relative="1" as="geometry" />
        </mxCell>
        <mxCell id="LibIu4Z24v2-g8bAybLF-21" style="edgeStyle=orthogonalEdgeStyle;rounded=0;orthogonalLoop=1;jettySize=auto;html=1;" parent="1" source="LibIu4Z24v2-g8bAybLF-6" target="LibIu4Z24v2-g8bAybLF-16" edge="1">
          <mxGeometry relative="1" as="geometry">
            <Array as="points">
              <mxPoint x="-732" y="-440" />
              <mxPoint x="-675" y="-440" />
            </Array>
          </mxGeometry>
        </mxCell>
        <mxCell id="LibIu4Z24v2-g8bAybLF-6" value="지역" style="whiteSpace=wrap;html=1;aspect=fixed;" parent="1" vertex="1">
          <mxGeometry x="-767.5" y="-520" width="70" height="70" as="geometry" />
        </mxCell>
        <mxCell id="LibIu4Z24v2-g8bAybLF-25" style="edgeStyle=orthogonalEdgeStyle;rounded=0;orthogonalLoop=1;jettySize=auto;html=1;entryX=0.5;entryY=0;entryDx=0;entryDy=0;" parent="1" source="LibIu4Z24v2-g8bAybLF-7" target="LibIu4Z24v2-g8bAybLF-22" edge="1">
          <mxGeometry relative="1" as="geometry" />
        </mxCell>
        <mxCell id="LibIu4Z24v2-g8bAybLF-26" style="edgeStyle=orthogonalEdgeStyle;rounded=0;orthogonalLoop=1;jettySize=auto;html=1;" parent="1" source="LibIu4Z24v2-g8bAybLF-7" target="LibIu4Z24v2-g8bAybLF-23" edge="1">
          <mxGeometry relative="1" as="geometry" />
        </mxCell>
        <mxCell id="LibIu4Z24v2-g8bAybLF-28" style="edgeStyle=orthogonalEdgeStyle;rounded=0;orthogonalLoop=1;jettySize=auto;html=1;" parent="1" source="LibIu4Z24v2-g8bAybLF-7" target="LibIu4Z24v2-g8bAybLF-24" edge="1">
          <mxGeometry relative="1" as="geometry" />
        </mxCell>
        <mxCell id="LibIu4Z24v2-g8bAybLF-7" value="일정" style="whiteSpace=wrap;html=1;aspect=fixed;" parent="1" vertex="1">
          <mxGeometry x="-605" y="-520" width="70" height="70" as="geometry" />
        </mxCell>
        <mxCell id="LibIu4Z24v2-g8bAybLF-32" style="edgeStyle=orthogonalEdgeStyle;rounded=0;orthogonalLoop=1;jettySize=auto;html=1;" parent="1" source="LibIu4Z24v2-g8bAybLF-8" target="LibIu4Z24v2-g8bAybLF-29" edge="1">
          <mxGeometry relative="1" as="geometry">
            <Array as="points">
              <mxPoint x="-385" y="-430" />
              <mxPoint x="-443" y="-430" />
            </Array>
          </mxGeometry>
        </mxCell>
        <mxCell id="LibIu4Z24v2-g8bAybLF-33" style="edgeStyle=orthogonalEdgeStyle;rounded=0;orthogonalLoop=1;jettySize=auto;html=1;entryX=0.5;entryY=0;entryDx=0;entryDy=0;" parent="1" source="LibIu4Z24v2-g8bAybLF-8" target="LibIu4Z24v2-g8bAybLF-30" edge="1">
          <mxGeometry relative="1" as="geometry" />
        </mxCell>
        <mxCell id="LibIu4Z24v2-g8bAybLF-34" style="edgeStyle=orthogonalEdgeStyle;rounded=0;orthogonalLoop=1;jettySize=auto;html=1;entryX=0.5;entryY=0;entryDx=0;entryDy=0;" parent="1" source="LibIu4Z24v2-g8bAybLF-8" target="LibIu4Z24v2-g8bAybLF-31" edge="1">
          <mxGeometry relative="1" as="geometry" />
        </mxCell>
        <mxCell id="LibIu4Z24v2-g8bAybLF-8" value="테마" style="whiteSpace=wrap;html=1;aspect=fixed;" parent="1" vertex="1">
          <mxGeometry x="-420" y="-520" width="70" height="70" as="geometry" />
        </mxCell>
        <mxCell id="LibIu4Z24v2-g8bAybLF-38" style="edgeStyle=orthogonalEdgeStyle;rounded=0;orthogonalLoop=1;jettySize=auto;html=1;" parent="1" source="LibIu4Z24v2-g8bAybLF-9" target="LibIu4Z24v2-g8bAybLF-35" edge="1">
          <mxGeometry relative="1" as="geometry" />
        </mxCell>
        <mxCell id="LibIu4Z24v2-g8bAybLF-39" style="edgeStyle=orthogonalEdgeStyle;rounded=0;orthogonalLoop=1;jettySize=auto;html=1;" parent="1" source="LibIu4Z24v2-g8bAybLF-9" target="LibIu4Z24v2-g8bAybLF-37" edge="1">
          <mxGeometry relative="1" as="geometry">
            <Array as="points">
              <mxPoint x="-205" y="-430" />
              <mxPoint x="-150" y="-430" />
            </Array>
          </mxGeometry>
        </mxCell>
        <mxCell id="LibIu4Z24v2-g8bAybLF-40" style="edgeStyle=orthogonalEdgeStyle;rounded=0;orthogonalLoop=1;jettySize=auto;html=1;" parent="1" source="LibIu4Z24v2-g8bAybLF-9" target="LibIu4Z24v2-g8bAybLF-36" edge="1">
          <mxGeometry relative="1" as="geometry" />
        </mxCell>
        <mxCell id="LibIu4Z24v2-g8bAybLF-9" value="숙소" style="whiteSpace=wrap;html=1;aspect=fixed;" parent="1" vertex="1">
          <mxGeometry x="-240" y="-520" width="70" height="70" as="geometry" />
        </mxCell>
        <mxCell id="LibIu4Z24v2-g8bAybLF-14" value="서울" style="whiteSpace=wrap;html=1;aspect=fixed;" parent="1" vertex="1">
          <mxGeometry x="-810" y="-415" width="40" height="40" as="geometry" />
        </mxCell>
        <mxCell id="LibIu4Z24v2-g8bAybLF-15" value="경기" style="whiteSpace=wrap;html=1;aspect=fixed;" parent="1" vertex="1">
          <mxGeometry x="-752.5" y="-415" width="40" height="40" as="geometry" />
        </mxCell>
        <mxCell id="LibIu4Z24v2-g8bAybLF-16" value="..." style="whiteSpace=wrap;html=1;aspect=fixed;" parent="1" vertex="1">
          <mxGeometry x="-695" y="-415" width="40" height="40" as="geometry" />
        </mxCell>
        <mxCell id="LibIu4Z24v2-g8bAybLF-22" value="당일&lt;br&gt;치기" style="whiteSpace=wrap;html=1;aspect=fixed;" parent="1" vertex="1">
          <mxGeometry x="-640" y="-415" width="40" height="40" as="geometry" />
        </mxCell>
        <mxCell id="LibIu4Z24v2-g8bAybLF-23" value="1박&lt;br&gt;2일" style="whiteSpace=wrap;html=1;aspect=fixed;" parent="1" vertex="1">
          <mxGeometry x="-590" y="-415" width="40" height="40" as="geometry" />
        </mxCell>
        <mxCell id="LibIu4Z24v2-g8bAybLF-24" value="......" style="whiteSpace=wrap;html=1;aspect=fixed;" parent="1" vertex="1">
          <mxGeometry x="-540" y="-415" width="40" height="40" as="geometry" />
        </mxCell>
        <mxCell id="LibIu4Z24v2-g8bAybLF-29" value="커플" style="whiteSpace=wrap;html=1;aspect=fixed;" parent="1" vertex="1">
          <mxGeometry x="-463" y="-415" width="40" height="40" as="geometry" />
        </mxCell>
        <mxCell id="LibIu4Z24v2-g8bAybLF-30" value="우정" style="whiteSpace=wrap;html=1;aspect=fixed;" parent="1" vertex="1">
          <mxGeometry x="-405" y="-415" width="40" height="40" as="geometry" />
        </mxCell>
        <mxCell id="LibIu4Z24v2-g8bAybLF-31" value="가족" style="whiteSpace=wrap;html=1;aspect=fixed;" parent="1" vertex="1">
          <mxGeometry x="-350" y="-415" width="40" height="40" as="geometry" />
        </mxCell>
        <mxCell id="LibIu4Z24v2-g8bAybLF-35" value="호텔" style="whiteSpace=wrap;html=1;aspect=fixed;" parent="1" vertex="1">
          <mxGeometry x="-280" y="-415" width="40" height="40" as="geometry" />
        </mxCell>
        <mxCell id="LibIu4Z24v2-g8bAybLF-36" value="팬션&lt;span style=&quot;color: rgba(0 , 0 , 0 , 0) ; font-family: monospace ; font-size: 0px&quot;&gt;%3CmxGraphModel%3E%3Croot%3E%3CmxCell%20id%3D%220%22%2F%3E%3CmxCell%20id%3D%221%22%20parent%3D%220%22%2F%3E%3CmxCell%20id%3D%222%22%20value%3D%22%EA%B0%80%EC%A1%B1%22%20style%3D%22whiteSpace%3Dwrap%3Bhtml%3D1%3Baspect%3Dfixed%3B%22%20vertex%3D%221%22%20parent%3D%221%22%3E%3CmxGeometry%20x%3D%22-320%22%20y%3D%22565%22%20width%3D%2240%22%20height%3D%2240%22%20as%3D%22geometry%22%2F%3E%3C%2FmxCell%3E%3C%2Froot%3E%3C%2FmxGraphModel%3E&lt;/span&gt;" style="whiteSpace=wrap;html=1;aspect=fixed;" parent="1" vertex="1">
          <mxGeometry x="-225" y="-415" width="40" height="40" as="geometry" />
        </mxCell>
        <mxCell id="LibIu4Z24v2-g8bAybLF-37" value="..." style="whiteSpace=wrap;html=1;aspect=fixed;" parent="1" vertex="1">
          <mxGeometry x="-170" y="-415" width="40" height="40" as="geometry" />
        </mxCell>
        <mxCell id="LibIu4Z24v2-g8bAybLF-52" style="edgeStyle=orthogonalEdgeStyle;rounded=0;orthogonalLoop=1;jettySize=auto;html=1;entryX=0.5;entryY=0;entryDx=0;entryDy=0;" parent="1" source="LibIu4Z24v2-g8bAybLF-42" target="LibIu4Z24v2-g8bAybLF-44" edge="1">
          <mxGeometry relative="1" as="geometry" />
        </mxCell>
        <mxCell id="LibIu4Z24v2-g8bAybLF-42" value="" style="rounded=0;whiteSpace=wrap;html=1;" parent="1" vertex="1">
          <mxGeometry x="-810" y="-360" width="680" height="10" as="geometry" />
        </mxCell>
        <mxCell id="LibIu4Z24v2-g8bAybLF-49" style="edgeStyle=orthogonalEdgeStyle;rounded=0;orthogonalLoop=1;jettySize=auto;html=1;" parent="1" source="LibIu4Z24v2-g8bAybLF-44" target="LibIu4Z24v2-g8bAybLF-47" edge="1">
          <mxGeometry relative="1" as="geometry">
            <Array as="points">
              <mxPoint x="-470" y="-220" />
              <mxPoint x="-620" y="-220" />
            </Array>
          </mxGeometry>
        </mxCell>
        <mxCell id="LibIu4Z24v2-g8bAybLF-50" style="edgeStyle=orthogonalEdgeStyle;rounded=0;orthogonalLoop=1;jettySize=auto;html=1;" parent="1" source="LibIu4Z24v2-g8bAybLF-44" target="LibIu4Z24v2-g8bAybLF-48" edge="1">
          <mxGeometry relative="1" as="geometry">
            <Array as="points">
              <mxPoint x="-470" y="-190" />
              <mxPoint x="-470" y="-190" />
            </Array>
          </mxGeometry>
        </mxCell>
        <mxCell id="LibIu4Z24v2-g8bAybLF-54" style="edgeStyle=orthogonalEdgeStyle;rounded=0;orthogonalLoop=1;jettySize=auto;html=1;" parent="1" source="LibIu4Z24v2-g8bAybLF-44" target="LibIu4Z24v2-g8bAybLF-53" edge="1">
          <mxGeometry relative="1" as="geometry">
            <Array as="points">
              <mxPoint x="-470" y="-220" />
              <mxPoint x="-335" y="-220" />
            </Array>
          </mxGeometry>
        </mxCell>
        <mxCell id="LibIu4Z24v2-g8bAybLF-44" value="검색페이지" style="rounded=0;whiteSpace=wrap;html=1;" parent="1" vertex="1">
          <mxGeometry x="-530" y="-310" width="120" height="60" as="geometry" />
        </mxCell>
        <mxCell id="LibIu4Z24v2-g8bAybLF-66" style="edgeStyle=orthogonalEdgeStyle;rounded=0;orthogonalLoop=1;jettySize=auto;html=1;entryX=0.5;entryY=0;entryDx=0;entryDy=0;" parent="1" source="LibIu4Z24v2-g8bAybLF-47" target="LibIu4Z24v2-g8bAybLF-62" edge="1">
          <mxGeometry relative="1" as="geometry" />
        </mxCell>
        <mxCell id="LibIu4Z24v2-g8bAybLF-67" style="edgeStyle=orthogonalEdgeStyle;rounded=0;orthogonalLoop=1;jettySize=auto;html=1;entryX=0.5;entryY=0;entryDx=0;entryDy=0;" parent="1" source="LibIu4Z24v2-g8bAybLF-47" target="LibIu4Z24v2-g8bAybLF-63" edge="1">
          <mxGeometry relative="1" as="geometry" />
        </mxCell>
        <mxCell id="LibIu4Z24v2-g8bAybLF-47" value="다른사람의 여행 플랜" style="whiteSpace=wrap;html=1;aspect=fixed;" parent="1" vertex="1">
          <mxGeometry x="-655" y="-180" width="70" height="70" as="geometry" />
        </mxCell>
        <mxCell id="LibIu4Z24v2-g8bAybLF-48" value="인기장소" style="whiteSpace=wrap;html=1;aspect=fixed;" parent="1" vertex="1">
          <mxGeometry x="-505" y="-180" width="70" height="70" as="geometry" />
        </mxCell>
        <mxCell id="LibIu4Z24v2-g8bAybLF-70" style="edgeStyle=orthogonalEdgeStyle;rounded=0;orthogonalLoop=1;jettySize=auto;html=1;" parent="1" source="LibIu4Z24v2-g8bAybLF-53" target="LibIu4Z24v2-g8bAybLF-69" edge="1">
          <mxGeometry relative="1" as="geometry" />
        </mxCell>
        <mxCell id="LibIu4Z24v2-g8bAybLF-53" value="찜목록" style="whiteSpace=wrap;html=1;aspect=fixed;" parent="1" vertex="1">
          <mxGeometry x="-370" y="-180" width="70" height="70" as="geometry" />
        </mxCell>
        <mxCell id="LibIu4Z24v2-g8bAybLF-56" style="edgeStyle=orthogonalEdgeStyle;rounded=0;orthogonalLoop=1;jettySize=auto;html=1;entryX=0.5;entryY=0;entryDx=0;entryDy=0;" parent="1" source="LibIu4Z24v2-g8bAybLF-55" target="LibIu4Z24v2-g8bAybLF-1" edge="1">
          <mxGeometry relative="1" as="geometry">
            <Array as="points">
              <mxPoint x="160" y="-900" />
              <mxPoint x="-230" y="-900" />
            </Array>
          </mxGeometry>
        </mxCell>
        <mxCell id="LibIu4Z24v2-g8bAybLF-59" style="edgeStyle=orthogonalEdgeStyle;rounded=0;orthogonalLoop=1;jettySize=auto;html=1;" parent="1" source="LibIu4Z24v2-g8bAybLF-55" target="LibIu4Z24v2-g8bAybLF-57" edge="1">
          <mxGeometry relative="1" as="geometry">
            <Array as="points">
              <mxPoint x="160" y="-900" />
              <mxPoint x="490" y="-900" />
            </Array>
          </mxGeometry>
        </mxCell>
        <mxCell id="LibIu4Z24v2-g8bAybLF-89" style="edgeStyle=orthogonalEdgeStyle;rounded=0;orthogonalLoop=1;jettySize=auto;html=1;" parent="1" source="LibIu4Z24v2-g8bAybLF-55" target="LibIu4Z24v2-g8bAybLF-88" edge="1">
          <mxGeometry relative="1" as="geometry" />
        </mxCell>
        <mxCell id="LibIu4Z24v2-g8bAybLF-55" value="메인페이지" style="whiteSpace=wrap;html=1;aspect=fixed;" parent="1" vertex="1">
          <mxGeometry x="120" y="-1070" width="80" height="80" as="geometry" />
        </mxCell>
        <mxCell id="XQzOJQlhlccoYzQNNUbS-9" style="edgeStyle=orthogonalEdgeStyle;rounded=0;orthogonalLoop=1;jettySize=auto;html=1;entryX=0.5;entryY=0;entryDx=0;entryDy=0;" edge="1" parent="1" source="LibIu4Z24v2-g8bAybLF-57" target="XQzOJQlhlccoYzQNNUbS-2">
          <mxGeometry relative="1" as="geometry" />
        </mxCell>
        <mxCell id="XQzOJQlhlccoYzQNNUbS-10" style="edgeStyle=orthogonalEdgeStyle;rounded=0;orthogonalLoop=1;jettySize=auto;html=1;" edge="1" parent="1" source="LibIu4Z24v2-g8bAybLF-57" target="XQzOJQlhlccoYzQNNUbS-3">
          <mxGeometry relative="1" as="geometry" />
        </mxCell>
        <mxCell id="LibIu4Z24v2-g8bAybLF-57" value="추천" style="whiteSpace=wrap;html=1;aspect=fixed;" parent="1" vertex="1">
          <mxGeometry x="450" y="-880" width="80" height="80" as="geometry" />
        </mxCell>
        <mxCell id="LibIu4Z24v2-g8bAybLF-62" value="최신순" style="whiteSpace=wrap;html=1;aspect=fixed;verticalAlign=middle;" parent="1" vertex="1">
          <mxGeometry x="-680" y="-70" width="40" height="40" as="geometry" />
        </mxCell>
        <mxCell id="LibIu4Z24v2-g8bAybLF-63" value="조회순" style="whiteSpace=wrap;html=1;aspect=fixed;verticalAlign=middle;" parent="1" vertex="1">
          <mxGeometry x="-600" y="-70" width="40" height="40" as="geometry" />
        </mxCell>
        <mxCell id="LibIu4Z24v2-g8bAybLF-69" value="내가 저장한 목록" style="whiteSpace=wrap;html=1;aspect=fixed;verticalAlign=middle;" parent="1" vertex="1">
          <mxGeometry x="-355" y="-70" width="40" height="40" as="geometry" />
        </mxCell>
        <mxCell id="LibIu4Z24v2-g8bAybLF-78" style="edgeStyle=orthogonalEdgeStyle;rounded=0;orthogonalLoop=1;jettySize=auto;html=1;" parent="1" source="LibIu4Z24v2-g8bAybLF-72" target="LibIu4Z24v2-g8bAybLF-73" edge="1">
          <mxGeometry relative="1" as="geometry" />
        </mxCell>
        <mxCell id="LibIu4Z24v2-g8bAybLF-79" style="edgeStyle=orthogonalEdgeStyle;rounded=0;orthogonalLoop=1;jettySize=auto;html=1;entryX=0.5;entryY=0;entryDx=0;entryDy=0;" parent="1" source="LibIu4Z24v2-g8bAybLF-72" target="LibIu4Z24v2-g8bAybLF-74" edge="1">
          <mxGeometry relative="1" as="geometry" />
        </mxCell>
        <mxCell id="LibIu4Z24v2-g8bAybLF-80" style="edgeStyle=orthogonalEdgeStyle;rounded=0;orthogonalLoop=1;jettySize=auto;html=1;entryX=0.5;entryY=0;entryDx=0;entryDy=0;" parent="1" source="LibIu4Z24v2-g8bAybLF-72" target="LibIu4Z24v2-g8bAybLF-75" edge="1">
          <mxGeometry relative="1" as="geometry" />
        </mxCell>
        <mxCell id="LibIu4Z24v2-g8bAybLF-81" style="edgeStyle=orthogonalEdgeStyle;rounded=0;orthogonalLoop=1;jettySize=auto;html=1;" parent="1" source="LibIu4Z24v2-g8bAybLF-72" target="LibIu4Z24v2-g8bAybLF-76" edge="1">
          <mxGeometry relative="1" as="geometry" />
        </mxCell>
        <mxCell id="LibIu4Z24v2-g8bAybLF-72" value="" style="rounded=0;whiteSpace=wrap;html=1;verticalAlign=middle;" parent="1" vertex="1">
          <mxGeometry x="-680" y="-20" width="120" height="5" as="geometry" />
        </mxCell>
        <mxCell id="LibIu4Z24v2-g8bAybLF-86" style="edgeStyle=orthogonalEdgeStyle;rounded=0;orthogonalLoop=1;jettySize=auto;html=1;entryX=0.5;entryY=0;entryDx=0;entryDy=0;" parent="1" source="LibIu4Z24v2-g8bAybLF-73" target="LibIu4Z24v2-g8bAybLF-83" edge="1">
          <mxGeometry relative="1" as="geometry">
            <Array as="points">
              <mxPoint x="-693" y="80" />
              <mxPoint x="-729" y="80" />
            </Array>
          </mxGeometry>
        </mxCell>
        <mxCell id="LibIu4Z24v2-g8bAybLF-87" style="edgeStyle=orthogonalEdgeStyle;rounded=0;orthogonalLoop=1;jettySize=auto;html=1;entryX=0.5;entryY=0;entryDx=0;entryDy=0;" parent="1" source="LibIu4Z24v2-g8bAybLF-73" target="LibIu4Z24v2-g8bAybLF-84" edge="1">
          <mxGeometry relative="1" as="geometry">
            <Array as="points">
              <mxPoint x="-693" y="80" />
              <mxPoint x="-657" y="80" />
            </Array>
          </mxGeometry>
        </mxCell>
        <mxCell id="LibIu4Z24v2-g8bAybLF-73" value="일정" style="whiteSpace=wrap;html=1;aspect=fixed;verticalAlign=middle;" parent="1" vertex="1">
          <mxGeometry x="-708" y="30" width="30" height="30" as="geometry" />
        </mxCell>
        <mxCell id="LibIu4Z24v2-g8bAybLF-74" value="찜하기" style="whiteSpace=wrap;html=1;aspect=fixed;verticalAlign=middle;" parent="1" vertex="1">
          <mxGeometry x="-655" y="30" width="30" height="30" as="geometry" />
        </mxCell>
        <mxCell id="LibIu4Z24v2-g8bAybLF-75" value="가져오기" style="whiteSpace=wrap;html=1;aspect=fixed;verticalAlign=middle;" parent="1" vertex="1">
          <mxGeometry x="-610" y="30" width="30" height="30" as="geometry" />
        </mxCell>
        <mxCell id="LibIu4Z24v2-g8bAybLF-76" value="&lt;span style=&quot;font-weight: normal&quot;&gt;즐겨찾기&lt;/span&gt;" style="whiteSpace=wrap;html=1;aspect=fixed;verticalAlign=middle;fontStyle=1" parent="1" vertex="1">
          <mxGeometry x="-565" y="30" width="30" height="30" as="geometry" />
        </mxCell>
        <mxCell id="LibIu4Z24v2-g8bAybLF-83" value="간단히" style="rounded=0;whiteSpace=wrap;html=1;verticalAlign=middle;" parent="1" vertex="1">
          <mxGeometry x="-751" y="100" width="42.5" height="30" as="geometry" />
        </mxCell>
        <mxCell id="LibIu4Z24v2-g8bAybLF-84" value="자세히" style="rounded=0;whiteSpace=wrap;html=1;verticalAlign=middle;" parent="1" vertex="1">
          <mxGeometry x="-678.5" y="100" width="42.5" height="30" as="geometry" />
        </mxCell>
        <mxCell id="LibIu4Z24v2-g8bAybLF-95" style="edgeStyle=orthogonalEdgeStyle;rounded=0;orthogonalLoop=1;jettySize=auto;html=1;" parent="1" source="LibIu4Z24v2-g8bAybLF-88" target="LibIu4Z24v2-g8bAybLF-91" edge="1">
          <mxGeometry relative="1" as="geometry">
            <Array as="points">
              <mxPoint x="160" y="-760" />
              <mxPoint x="28" y="-760" />
            </Array>
          </mxGeometry>
        </mxCell>
        <mxCell id="LibIu4Z24v2-g8bAybLF-96" style="edgeStyle=orthogonalEdgeStyle;rounded=0;orthogonalLoop=1;jettySize=auto;html=1;entryX=0.5;entryY=0;entryDx=0;entryDy=0;" parent="1" source="LibIu4Z24v2-g8bAybLF-88" target="LibIu4Z24v2-g8bAybLF-92" edge="1">
          <mxGeometry relative="1" as="geometry" />
        </mxCell>
        <mxCell id="LibIu4Z24v2-g8bAybLF-97" style="edgeStyle=orthogonalEdgeStyle;rounded=0;orthogonalLoop=1;jettySize=auto;html=1;entryX=0.5;entryY=0;entryDx=0;entryDy=0;" parent="1" source="LibIu4Z24v2-g8bAybLF-88" target="LibIu4Z24v2-g8bAybLF-93" edge="1">
          <mxGeometry relative="1" as="geometry" />
        </mxCell>
        <mxCell id="LibIu4Z24v2-g8bAybLF-98" style="edgeStyle=orthogonalEdgeStyle;rounded=0;orthogonalLoop=1;jettySize=auto;html=1;" parent="1" source="LibIu4Z24v2-g8bAybLF-88" target="LibIu4Z24v2-g8bAybLF-94" edge="1">
          <mxGeometry relative="1" as="geometry">
            <Array as="points">
              <mxPoint x="160" y="-760" />
              <mxPoint x="292" y="-760" />
            </Array>
          </mxGeometry>
        </mxCell>
        <mxCell id="LibIu4Z24v2-g8bAybLF-88" value="마이페이지" style="whiteSpace=wrap;html=1;aspect=fixed;" parent="1" vertex="1">
          <mxGeometry x="120" y="-860" width="80" height="80" as="geometry" />
        </mxCell>
        <mxCell id="XQzOJQlhlccoYzQNNUbS-12" style="edgeStyle=orthogonalEdgeStyle;rounded=0;orthogonalLoop=1;jettySize=auto;html=1;entryX=0.5;entryY=0;entryDx=0;entryDy=0;" edge="1" parent="1" source="LibIu4Z24v2-g8bAybLF-91" target="XQzOJQlhlccoYzQNNUbS-11">
          <mxGeometry relative="1" as="geometry" />
        </mxCell>
        <mxCell id="LibIu4Z24v2-g8bAybLF-91" value="여행리스트" style="rounded=0;whiteSpace=wrap;html=1;verticalAlign=middle;" parent="1" vertex="1">
          <mxGeometry x="-7" y="-730" width="70" height="30" as="geometry" />
        </mxCell>
        <mxCell id="XQzOJQlhlccoYzQNNUbS-4" style="edgeStyle=orthogonalEdgeStyle;rounded=0;orthogonalLoop=1;jettySize=auto;html=1;" edge="1" parent="1" source="LibIu4Z24v2-g8bAybLF-92" target="XQzOJQlhlccoYzQNNUbS-5">
          <mxGeometry relative="1" as="geometry">
            <mxPoint x="117.99999999999955" y="-650" as="targetPoint" />
          </mxGeometry>
        </mxCell>
        <mxCell id="LibIu4Z24v2-g8bAybLF-92" value="찜목록" style="rounded=0;whiteSpace=wrap;html=1;verticalAlign=middle;" parent="1" vertex="1">
          <mxGeometry x="83" y="-730" width="70" height="30" as="geometry" />
        </mxCell>
        <mxCell id="LibIu4Z24v2-g8bAybLF-93" value="즐겨찾기" style="rounded=0;whiteSpace=wrap;html=1;verticalAlign=middle;" parent="1" vertex="1">
          <mxGeometry x="168" y="-730" width="70" height="30" as="geometry" />
        </mxCell>
        <mxCell id="LibIu4Z24v2-g8bAybLF-116" style="edgeStyle=orthogonalEdgeStyle;rounded=0;orthogonalLoop=1;jettySize=auto;html=1;entryX=0.5;entryY=0;entryDx=0;entryDy=0;" parent="1" source="LibIu4Z24v2-g8bAybLF-94" target="LibIu4Z24v2-g8bAybLF-115" edge="1">
          <mxGeometry relative="1" as="geometry" />
        </mxCell>
        <mxCell id="LibIu4Z24v2-g8bAybLF-94" value="내정보" style="rounded=0;whiteSpace=wrap;html=1;verticalAlign=middle;" parent="1" vertex="1">
          <mxGeometry x="257" y="-730" width="70" height="30" as="geometry" />
        </mxCell>
        <mxCell id="LibIu4Z24v2-g8bAybLF-99" value="id" style="ellipse;whiteSpace=wrap;html=1;verticalAlign=middle;" parent="1" vertex="1">
          <mxGeometry x="185.5" y="-656.5" width="50" height="34" as="geometry" />
        </mxCell>
        <mxCell id="LibIu4Z24v2-g8bAybLF-104" value="pw" style="ellipse;whiteSpace=wrap;html=1;verticalAlign=middle;" parent="1" vertex="1">
          <mxGeometry x="239.5" y="-656.5" width="50" height="34" as="geometry" />
        </mxCell>
        <mxCell id="LibIu4Z24v2-g8bAybLF-105" value="tel" style="ellipse;whiteSpace=wrap;html=1;verticalAlign=middle;" parent="1" vertex="1">
          <mxGeometry x="295.5" y="-656.5" width="50" height="34" as="geometry" />
        </mxCell>
        <mxCell id="LibIu4Z24v2-g8bAybLF-106" value="닉네임" style="ellipse;whiteSpace=wrap;html=1;verticalAlign=middle;" parent="1" vertex="1">
          <mxGeometry x="348.5" y="-656.5" width="50" height="34" as="geometry" />
        </mxCell>
        <mxCell id="LibIu4Z24v2-g8bAybLF-107" value="이름" style="ellipse;whiteSpace=wrap;html=1;verticalAlign=middle;" parent="1" vertex="1">
          <mxGeometry x="185.5" y="-619.5" width="50" height="34" as="geometry" />
        </mxCell>
        <mxCell id="LibIu4Z24v2-g8bAybLF-108" value="회원&lt;br&gt;번호" style="ellipse;whiteSpace=wrap;html=1;verticalAlign=middle;" parent="1" vertex="1">
          <mxGeometry x="239.5" y="-619.5" width="50" height="34" as="geometry" />
        </mxCell>
        <mxCell id="LibIu4Z24v2-g8bAybLF-109" value="e-mail" style="ellipse;whiteSpace=wrap;html=1;verticalAlign=middle;" parent="1" vertex="1">
          <mxGeometry x="295.5" y="-619.5" width="50" height="34" as="geometry" />
        </mxCell>
        <mxCell id="LibIu4Z24v2-g8bAybLF-115" value="" style="rounded=0;whiteSpace=wrap;html=1;verticalAlign=middle;" parent="1" vertex="1">
          <mxGeometry x="185.5" y="-662.5" width="214.5" height="5" as="geometry" />
        </mxCell>
        <mxCell id="LibIu4Z24v2-g8bAybLF-117" value="" style="rounded=0;whiteSpace=wrap;html=1;verticalAlign=middle;" parent="1" vertex="1">
          <mxGeometry x="184" y="-585" width="214.5" height="5" as="geometry" />
        </mxCell>
        <mxCell id="XQzOJQlhlccoYzQNNUbS-2" value="조회수" style="rounded=0;whiteSpace=wrap;html=1;" vertex="1" parent="1">
          <mxGeometry x="390" y="-730" width="100" height="30" as="geometry" />
        </mxCell>
        <mxCell id="XQzOJQlhlccoYzQNNUbS-3" value="짐목록" style="rounded=0;whiteSpace=wrap;html=1;" vertex="1" parent="1">
          <mxGeometry x="507" y="-730" width="100" height="30" as="geometry" />
        </mxCell>
        <mxCell id="XQzOJQlhlccoYzQNNUbS-5" value="사용자 지정폴더" style="rounded=0;whiteSpace=wrap;html=1;" vertex="1" parent="1">
          <mxGeometry x="83" y="-659" width="71" height="39.5" as="geometry" />
        </mxCell>
        <mxCell id="XQzOJQlhlccoYzQNNUbS-31" style="edgeStyle=orthogonalEdgeStyle;rounded=0;orthogonalLoop=1;jettySize=auto;html=1;entryX=0.5;entryY=0;entryDx=0;entryDy=0;" edge="1" parent="1" source="XQzOJQlhlccoYzQNNUbS-11" target="XQzOJQlhlccoYzQNNUbS-27">
          <mxGeometry relative="1" as="geometry" />
        </mxCell>
        <mxCell id="XQzOJQlhlccoYzQNNUbS-11" value="리스트" style="rounded=0;whiteSpace=wrap;html=1;" vertex="1" parent="1">
          <mxGeometry x="-7" y="-649.5" width="70" height="30" as="geometry" />
        </mxCell>
        <mxCell id="XQzOJQlhlccoYzQNNUbS-19" value="&lt;span style=&quot;color: rgba(0 , 0 , 0 , 0) ; font-family: monospace ; font-size: 0px&quot;&gt;%3CmxGraphModel%3E%3Croot%3E%3CmxCell%20id%3D%220%22%2F%3E%3CmxCell%20id%3D%221%22%20parent%3D%220%22%2F%3E%3CmxCell%20id%3D%222%22%20value%3D%22%EC%A1%B0%ED%9A%8C%EC%88%98%22%20style%3D%22rounded%3D0%3BwhiteSpace%3Dwrap%3Bhtml%3D1%3B%22%20vertex%3D%221%22%20parent%3D%221%22%3E%3CmxGeometry%20x%3D%22730%22%20y%3D%22-710%22%20width%3D%22100%22%20height%3D%2230%22%20as%3D%22geometry%22%2F%3E%3C%2FmxCell%3E%3C%2Froot%3E%3C%2FmxGraphModel%3E&lt;/span&gt;제목" style="ellipse;whiteSpace=wrap;html=1;" vertex="1" parent="1">
          <mxGeometry x="-49" y="-574.5" width="50" height="30" as="geometry" />
        </mxCell>
        <mxCell id="XQzOJQlhlccoYzQNNUbS-23" value="검색필터내용" style="ellipse;whiteSpace=wrap;html=1;" vertex="1" parent="1">
          <mxGeometry x="1" y="-574.5" width="50" height="30" as="geometry" />
        </mxCell>
        <mxCell id="XQzOJQlhlccoYzQNNUbS-24" value="작성&lt;br&gt;날짜" style="ellipse;whiteSpace=wrap;html=1;" vertex="1" parent="1">
          <mxGeometry x="-49" y="-544.5" width="50" height="30" as="geometry" />
        </mxCell>
        <mxCell id="XQzOJQlhlccoYzQNNUbS-25" value="조회수" style="ellipse;whiteSpace=wrap;html=1;" vertex="1" parent="1">
          <mxGeometry x="1" y="-544.5" width="50" height="30" as="geometry" />
        </mxCell>
        <mxCell id="XQzOJQlhlccoYzQNNUbS-26" value="회원번호" style="ellipse;whiteSpace=wrap;html=1;" vertex="1" parent="1">
          <mxGeometry x="51" y="-574.5" width="50" height="30" as="geometry" />
        </mxCell>
        <mxCell id="XQzOJQlhlccoYzQNNUbS-27" value="" style="rounded=0;whiteSpace=wrap;html=1;" vertex="1" parent="1">
          <mxGeometry x="-47" y="-585" width="155" height="5" as="geometry" />
        </mxCell>
        <mxCell id="XQzOJQlhlccoYzQNNUbS-29" value="" style="rounded=0;whiteSpace=wrap;html=1;" vertex="1" parent="1">
          <mxGeometry x="-52" y="-514.5" width="160" height="5" as="geometry" />
        </mxCell>
      </root>
    </mxGraphModel>
  </diagram>
</mxfile>
